<svg xmlns="http://www.w3.org/2000/svg" width="64" height="64" fill="none" id="light-blue-among-us">
  <path fill="#0ED3BC" d="M40.396 20.152c0-1.867 1.29-3.507 3.141-3.75a16.696 16.696 0 0 1 2.079-.161c.435 0 .92.032 1.413.083 2.34.24 4.118 2.113 4.486 4.436.373 2.355.761 5.368.761 7.72 0 2.804-.55 6.544-.97 8.992-.266 1.545-1.45 2.766-3 3.001-.894.136-1.878.248-2.69.248-.63 0-1.364-.068-2.079-.161-1.85-.243-3.141-1.884-3.141-3.75V20.151Z"></path>
  <path fill="#000" fill-rule="evenodd" d="M38.396 36.81V20.151c0-2.754 1.923-5.345 4.881-5.733.754-.099 1.584-.178 2.339-.178.526 0 1.084.038 1.618.093 3.343.344 5.763 3 6.256 6.113.376 2.37.786 5.515.786 8.034 0 2.99-.579 6.877-1 9.33-.403 2.347-2.221 4.267-4.67 4.64-.925.14-2.026.27-2.99.27-.755 0-1.585-.08-2.339-.178-2.958-.388-4.881-2.979-4.881-5.734Zm5.141-20.408c-1.85.243-3.141 1.883-3.141 3.75V36.81c0 1.867 1.29 3.508 3.141 3.75.715.094 1.449.162 2.079.162.812 0 1.796-.112 2.69-.248 1.55-.235 2.734-1.456 3-3.001.42-2.448.97-6.188.97-8.991 0-2.353-.388-5.366-.76-7.721-.369-2.323-2.147-4.195-4.486-4.436-.494-.05-.979-.083-1.414-.083-.63 0-1.364.067-2.079.161Z" clip-rule="evenodd"></path>
  <path fill="#06AA97" fill-rule="evenodd" d="M40.396 36.436v.373c0 1.867 1.29 3.508 3.141 3.75.715.094 1.449.162 2.079.162.812 0 1.796-.112 2.69-.248 1.55-.235 2.734-1.456 3-3.001.42-2.448.97-6.188.97-8.991 0-2.353-.388-5.366-.76-7.721a5.543 5.543 0 0 0-.884-2.245c.333 2.22.644 4.858.644 6.966 0 2.803-.55 6.543-.97 8.99-.266 1.546-1.45 2.767-3 3.002-.894.136-1.878.248-2.69.248-.63 0-1.364-.068-2.079-.161a3.495 3.495 0 0 1-2.141-1.124Z" clip-rule="evenodd"></path>
  <path fill="#14FBDF" fill-rule="evenodd" d="M47.57 17.855a1 1 0 0 1 1.387.278l-.832.555c.832-.555.832-.555.833-.554l.001.002.003.005.008.011a2.854 2.854 0 0 1 .098.16c.06.104.144.252.241.444.195.383.448.942.699 1.668.501 1.454.992 3.58.992 6.326a1 1 0 1 1-2 0c0-2.504-.447-4.41-.883-5.674a11.194 11.194 0 0 0-.59-1.414 6.348 6.348 0 0 0-.228-.41l-.008-.013m0 0 .001.002" clip-rule="evenodd"></path>
  <path fill="#14FBDF" d="M17.99 18.68C17.99 11.125 23.743 5 30.838 5s12.847 6.125 12.847 13.68c0 0 1.097 7.435 1.352 12.24.494 9.281-1.352 23.76-1.352 23.76 0 2.386-1.816 4.32-4.057 4.32h-2.704c-2.24 0-4.057-1.934-4.057-4.32v-6.65a12.17 12.17 0 0 1-5.41-.309v5.519c0 2.386-.463 4.32-2.704 4.32h-2.704c-3.043 0-3.893-2.14-4.057-4.68-.677-10.44-2.705-11.52-2.705-17.64 0-6.12 2.705-16.56 2.705-16.56Z"></path>
  <path fill="#000" fill-rule="evenodd" d="M43.684 54.68c0 2.386-1.816 4.32-4.057 4.32h-2.704c-2.24 0-4.057-1.934-4.057-4.32v-6.65c-.652.11-1.32.168-2 .17h-.029a12.213 12.213 0 0 1-3.38-.479v5.519c0 2.386-.464 4.32-2.705 4.32h-2.704c-3.043 0-3.893-2.14-4.057-4.68-.359-5.533-1.097-8.437-1.712-10.855-.545-2.145-.993-3.908-.993-6.785 0-6.12 2.705-16.56 2.705-16.56C17.99 11.125 23.742 5 30.837 5s12.847 6.125 12.847 13.68c0 0 1.097 7.435 1.352 12.24.494 9.281-1.352 23.76-1.352 23.76Zm2-36.15C45.608 10.057 39.104 3 30.837 3c-8.232 0-14.714 6.997-14.844 15.422l-.06.236a131.656 131.656 0 0 0-1.256 5.614c-.678 3.385-1.391 7.694-1.391 10.968 0 3.13.502 5.102 1.05 7.26l.11.43c.571 2.26 1.22 5.014 1.549 10.08.09 1.388.376 3.017 1.321 4.33 1.046 1.453 2.67 2.22 4.732 2.22h2.704c.853 0 1.679-.187 2.409-.632.732-.446 1.234-1.07 1.568-1.73.623-1.23.728-2.72.728-3.958v-3.107c.454.044.915.067 1.38.067h.029v4.48c0 3.37 2.595 6.32 6.057 6.32h2.704c3.415 0 5.987-2.87 6.056-6.184l.007-.055.058-.484a235.192 235.192 0 0 0 .79-7.83c.402-4.796.75-10.85.496-15.633-.132-2.477-.478-5.595-.785-8.063a231.614 231.614 0 0 0-.566-4.22Z" clip-rule="evenodd"></path>
  <path fill="#0ED3BC" fill-rule="evenodd" d="M18.022 17.71c-.02.321-.031.644-.031.97 0 0-.79 3.045-1.515 6.81a5.426 5.426 0 0 0 4.401 2.67l9.82.523a6.48 6.48 0 0 0 6.538-4.567c1.238-4.03-1.64-8.15-5.85-8.375l-7.18-.382a8.169 8.169 0 0 0-6.183 2.352Z" clip-rule="evenodd"></path>
  <path fill="#0ED4BC" fill-rule="evenodd" d="M18.477 55.319c.538 1.334 1.59 2.241 3.57 2.241h2.705c2.24 0 2.705-1.934 2.705-4.32v-5.519a12.13 12.13 0 0 0 3.38.479h.029v-2.17a12.17 12.17 0 0 1-5.41-.309v5.519c0 2.386-.463 4.32-2.704 4.32h-2.704c-.607 0-1.127-.085-1.57-.242Zm14.832 1.326C33.98 58.043 35.347 59 36.923 59h2.704c2.24 0 4.057-1.934 4.057-4.32 0 0 1.846-14.479 1.352-23.76-.255-4.805-1.352-12.24-1.352-12.24 0-4.459-2.003-8.42-5.104-10.917 1.935 2.395 3.104 5.51 3.104 8.917 0 0 1.097 7.435 1.352 12.24.494 9.281-1.352 23.76-1.352 23.76 0 2.386-1.816 4.32-4.057 4.32h-2.704c-.574 0-1.12-.127-1.614-.355Z" clip-rule="evenodd"></path>
  <path fill="#95FFF2" fill-rule="evenodd" d="M31.137 6.79a1 1 0 0 1-.768 1.188c-3.825.82-6.32 3.395-7.902 6.398-1.59 3.018-2.206 6.383-2.28 8.534a1.004 1.004 0 0 1-.02.166c-.237 1.156-.594 3.02-.89 4.847-.302 1.854-.527 3.583-.527 4.515 0 2.535.19 5.678 1.358 8.42a1 1 0 0 1-1.84.784c-1.334-3.133-1.518-6.615-1.518-9.205 0-1.118.254-3.003.552-4.835.295-1.817.648-3.665.89-4.847.095-2.393.77-6.017 2.506-9.312 1.764-3.35 4.676-6.44 9.252-7.42a1 1 0 0 1 1.187.767Z" clip-rule="evenodd"></path>
  <path fill="#54B0D7" d="M13.96 18.12a8.173 8.173 0 0 1 8.245-5.76l7.18.381c4.21.225 7.088 4.345 5.85 8.375a6.48 6.48 0 0 1-6.539 4.567l-9.819-.523c-3.539-.188-5.959-3.653-4.918-7.04Z"></path>
  <path fill="#000" fill-rule="evenodd" d="m22.312 10.362 7.18.382c5.508.293 9.275 5.686 7.654 10.96a8.48 8.48 0 0 1-8.556 5.976l-9.819-.523c-4.839-.257-8.147-4.994-6.724-9.625a10.172 10.172 0 0 1 10.265-7.17Zm-.107 1.997a8.172 8.172 0 0 0-8.246 5.76c-1.041 3.388 1.379 6.853 4.919 7.041l9.818.523a6.48 6.48 0 0 0 6.539-4.567c1.238-4.03-1.64-8.15-5.85-8.375l-7.18-.382Z" clip-rule="evenodd"></path>
  <path fill="#4088A3" fill-rule="evenodd" d="M14.443 22.434a5.427 5.427 0 0 0 4.435 2.726l9.818.523a6.48 6.48 0 0 0 6.539-4.567c.83-2.702-.19-5.444-2.22-7.026a6.439 6.439 0 0 1 .688 5.322 6.48 6.48 0 0 1-6.539 4.567l-9.818-.523a5.406 5.406 0 0 1-2.903-1.022Z" clip-rule="evenodd"></path>
  <path fill="#71D8F9" d="M15.688 16.281c.536-1.607 2.886-3.083 4.904-3.024 2.018.059 1.986-.186 5.775.17 3.79.354 4.895 2.372 4.133 4.651-.536 1.608-2.295 2.45-4.313 2.39-2.017-.058-3.593.438-6.406.438-2.812 0-4.855-2.345-4.093-4.625Z"></path>
  <path fill="#EDFEFF" fill-rule="evenodd" d="m18.258 16.258-.374-.927a1 1 0 0 0 .748 1.855h-.002l.012-.005.065-.023c.06-.022.155-.054.281-.092.253-.077.627-.177 1.097-.264.943-.174 2.254-.29 3.726-.063a1 1 0 0 0 .305-1.977 13.252 13.252 0 0 0-4.393.073 12.06 12.06 0 0 0-1.317.317 8.529 8.529 0 0 0-.475.16l-.03.012-.01.004-.004.002h-.002l.373.928Z" clip-rule="evenodd"></path>
  <path fill="#000" fill-rule="evenodd" d="M22.886 47.056a1 1 0 0 1 1.33-.481c1.187.556 2.698.842 4.182.965 1.471.121 2.843.078 3.707.018a1 1 0 1 1 .138 1.995c-.931.065-2.409.112-4.01-.02-1.587-.132-3.369-.446-4.866-1.148a1 1 0 0 1-.482-1.33Z" clip-rule="evenodd"></path>
  <path fill="#95FFF2" fill-rule="evenodd" d="M34.449 44.943a1 1 0 0 1 .893 1.096 51.24 51.24 0 0 0-.234 3.796c-.033 1.482.02 2.816.207 3.541a1 1 0 0 1-1.937.498c-.263-1.025-.303-2.618-.27-4.084.034-1.505.148-3.016.244-3.954a1 1 0 0 1 1.097-.893Z" clip-rule="evenodd"></path>
</svg>
